<?xml version="1.0" encoding="utf-8"?>
<!-- Generator: Adobe Illustrator 17.0.0, SVG Export Plug-In . SVG Version: 6.00 Build 0)  -->
<!DOCTYPE svg PUBLIC "-//W3C//DTD SVG 1.1//EN" "http://www.w3.org/Graphics/SVG/1.1/DTD/svg11.dtd">
<svg version="1.1" id="Слой_1" xmlns="http://www.w3.org/2000/svg" xmlns:xlink="http://www.w3.org/1999/xlink" x="0px" y="0px"
	 width="308px" height="74px" viewBox="0 0 308 74" enable-background="new 0 0 308 74" xml:space="preserve">
<g>
	<g>
		<g>
			<g>
				<g>
					<g>
						<defs>
							<path id="SVGID_1_" d="M49.081,39.872C45.056,22.1,34.812,12.423,34.812,12.423l-16.699,4.892
								c-5.648-4.193-10.419-6.962-10.419-6.962L39.98,0.894c0,0,9.323,8.807,12.985,24.98c3.418,15.092-1.989,26.251-2.727,27.676
								C50.465,49.502,50.216,44.885,49.081,39.872z"/>
						</defs>
						<clipPath id="SVGID_2_">
							<use xlink:href="#SVGID_1_"  overflow="visible"/>
						</clipPath>
						
							<linearGradient id="SVGID_3_" gradientUnits="userSpaceOnUse" x1="-409.9206" y1="66.8641" x2="-431.7926" y2="16.1853" gradientTransform="matrix(-1 0 0 -1 -384.6614 72)">
							<stop  offset="0" style="stop-color:#455B65"/>
							<stop  offset="1" style="stop-color:#394B54"/>
						</linearGradient>
						<path clip-path="url(#SVGID_2_)" fill="url(#SVGID_3_)" d="M49.081,39.872C45.056,22.1,34.812,12.423,34.812,12.423
							l-16.699,4.892c-5.648-4.193-10.419-6.962-10.419-6.962L39.98,0.894c0,0,9.323,8.807,12.985,24.98
							c3.418,15.092-1.989,26.251-2.727,27.676C50.465,49.502,50.216,44.885,49.081,39.872z"/>
					</g>
				</g>
			</g>
			<g>
				<g>
					<g>
						<defs>
							<path id="SVGID_4_" d="M49.081,39.872C45.056,22.1,34.812,12.423,34.812,12.423l-16.699,4.892
								c-5.648-4.193-10.419-6.962-10.419-6.962L39.98,0.894c0,0,9.323,8.807,12.985,24.98c3.418,15.092-1.989,26.251-2.727,27.676
								C50.465,49.502,50.216,44.885,49.081,39.872z"/>
						</defs>
						<clipPath id="SVGID_5_">
							<use xlink:href="#SVGID_4_"  overflow="visible"/>
						</clipPath>
						<path opacity="0.2" clip-path="url(#SVGID_5_)" fill="#FFFFFF" enable-background="new    " d="M40.393,28.064
							c8.478,12.507,0.108,27.257,0.108,27.257l9.96-1.618c0,0,6.472-11.658,2.81-27.831S40.286,0.892,40.286,0.892
							S31.914,15.559,40.393,28.064z"/>
					</g>
				</g>
			</g>
		</g>
		<g>
			<g>
				<g>
					<g>
						<defs>
							<path id="SVGID_6_" d="M0.531,28.135c0,0,17.093,9.92,24.87,20.639s7.631,24.332,7.631,24.332l9.96-1.618
								c0,0,6.472-11.658,2.81-27.831s-12.985-24.98-12.985-24.98L0.531,28.135z M31.715,38.952
								c2.775-0.813,5.551-1.626,8.326-2.439c0.697-0.204,1.45,0.24,1.641,0.931c0.195,0.709-0.234,1.436-0.931,1.641
								c-2.775,0.813-5.551,1.626-8.326,2.439c-0.697,0.204-1.45-0.24-1.641-0.931C30.587,39.882,31.018,39.156,31.715,38.952z
								 M21.207,34.291c2.968-0.87,5.937-1.739,8.905-2.609c2.183-0.64,4.367-1.279,6.55-1.919c0.697-0.204,1.45,0.24,1.641,0.931
								c0.195,0.709-0.234,1.436-0.931,1.641c-2.968,0.87-5.937,1.739-8.905,2.609c-2.183,0.64-4.367,1.279-6.55,1.919
								c-0.697,0.204-1.45-0.24-1.641-0.931C20.079,35.221,20.509,34.494,21.207,34.291z M15.927,29.864
								c-0.195-0.709,0.234-1.436,0.931-1.641c2.968-0.87,5.937-1.739,8.905-2.609c2.183-0.64,4.367-1.279,6.55-1.919
								c0.697-0.204,1.45,0.24,1.641,0.931c0.195,0.709-0.234,1.436-0.931,1.641c-2.968,0.87-5.937,1.739-8.905,2.609
								c-2.183,0.64-4.367,1.279-6.55,1.919C16.87,30.999,16.117,30.554,15.927,29.864z"/>
						</defs>
						<clipPath id="SVGID_7_">
							<use xlink:href="#SVGID_6_"  overflow="visible"/>
						</clipPath>
						
							<linearGradient id="SVGID_8_" gradientUnits="userSpaceOnUse" x1="-401.7854" y1="48.9456" x2="-429.7922" y2="2.2678" gradientTransform="matrix(-1 0 0 -1 -384.6614 72)">
							<stop  offset="0" style="stop-color:#DC2347"/>
							<stop  offset="1" style="stop-color:#B41C3A"/>
						</linearGradient>
						<path clip-path="url(#SVGID_7_)" fill="url(#SVGID_8_)" d="M0.531,28.135c0,0,17.093,9.92,24.87,20.639
							s7.631,24.332,7.631,24.332l9.96-1.618c0,0,6.472-11.658,2.81-27.831s-12.985-24.98-12.985-24.98L0.531,28.135z
							 M31.715,38.952c2.775-0.813,5.551-1.626,8.326-2.439c0.697-0.204,1.45,0.24,1.641,0.931c0.195,0.709-0.234,1.436-0.931,1.641
							c-2.775,0.813-5.551,1.626-8.326,2.439c-0.697,0.204-1.45-0.24-1.641-0.931C30.587,39.882,31.018,39.156,31.715,38.952z
							 M21.207,34.291c2.968-0.87,5.937-1.739,8.905-2.609c2.183-0.64,4.367-1.279,6.55-1.919c0.697-0.204,1.45,0.24,1.641,0.931
							c0.195,0.709-0.234,1.436-0.931,1.641c-2.968,0.87-5.937,1.739-8.905,2.609c-2.183,0.64-4.367,1.279-6.55,1.919
							c-0.697,0.204-1.45-0.24-1.641-0.931C20.079,35.221,20.509,34.494,21.207,34.291z M15.927,29.864
							c-0.195-0.709,0.234-1.436,0.931-1.641c2.968-0.87,5.937-1.739,8.905-2.609c2.183-0.64,4.367-1.279,6.55-1.919
							c0.697-0.204,1.45,0.24,1.641,0.931c0.195,0.709-0.234,1.436-0.931,1.641c-2.968,0.87-5.937,1.739-8.905,2.609
							c-2.183,0.64-4.367,1.279-6.55,1.919C16.87,30.999,16.117,30.554,15.927,29.864z"/>
					</g>
				</g>
			</g>
			<g>
				<g>
					<g>
						<defs>
							<path id="SVGID_9_" d="M0.531,28.135c0,0,17.093,9.92,24.87,20.639s7.631,24.332,7.631,24.332l9.96-1.618
								c0,0,6.472-11.658,2.81-27.831s-12.985-24.98-12.985-24.98L0.531,28.135z M31.715,38.952
								c2.775-0.813,5.551-1.626,8.326-2.439c0.697-0.204,1.45,0.24,1.641,0.931c0.195,0.709-0.234,1.436-0.931,1.641
								c-2.775,0.813-5.551,1.626-8.326,2.439c-0.697,0.204-1.45-0.24-1.641-0.931C30.587,39.882,31.018,39.156,31.715,38.952z
								 M21.207,34.291c2.968-0.87,5.937-1.739,8.905-2.609c2.183-0.64,4.367-1.279,6.55-1.919c0.697-0.204,1.45,0.24,1.641,0.931
								c0.195,0.709-0.234,1.436-0.931,1.641c-2.968,0.87-5.937,1.739-8.905,2.609c-2.183,0.64-4.367,1.279-6.55,1.919
								c-0.697,0.204-1.45-0.24-1.641-0.931C20.079,35.221,20.509,34.494,21.207,34.291z M15.927,29.864
								c-0.195-0.709,0.234-1.436,0.931-1.641c2.968-0.87,5.937-1.739,8.905-2.609c2.183-0.64,4.367-1.279,6.55-1.919
								c0.697-0.204,1.45,0.24,1.641,0.931c0.195,0.709-0.234,1.436-0.931,1.641c-2.968,0.87-5.937,1.739-8.905,2.609
								c-2.183,0.64-4.367,1.279-6.55,1.919C16.87,30.999,16.117,30.554,15.927,29.864z"/>
						</defs>
						<clipPath id="SVGID_10_">
							<use xlink:href="#SVGID_9_"  overflow="visible"/>
						</clipPath>
						<path opacity="0.2" clip-path="url(#SVGID_10_)" fill="#FFFFFF" enable-background="new    " d="M32.924,45.848
							c8.478,12.507,0.108,27.257,0.108,27.257l9.96-1.618c0,0,6.472-11.658,2.81-27.831s-12.985-24.98-12.985-24.98
							S24.447,33.34,32.924,45.848z"/>
					</g>
				</g>
			</g>
		</g>
	</g>
	<g>
		<path fill="#232323" d="M66.936,40.794c0,1.301,0.004,2.531,0.013,3.691s0.026,2.232,0.053,3.217
			c0.026,0.985,0.066,1.863,0.119,2.637c0.053,0.774,0.123,1.415,0.211,1.925h-5.801c0.193-1.055,0.307-2.58,0.343-4.575
			c0.035-1.995,0.053-4.293,0.053-6.895V22.126c0-1.23-0.013-2.377-0.04-3.441c-0.026-1.063-0.066-2.017-0.119-2.861
			c-0.053-0.844-0.132-1.529-0.237-2.057c0.914-0.035,1.925-0.079,3.032-0.132c0.949-0.035,2.074-0.066,3.375-0.092
			s2.725-0.04,4.271-0.04c2.057,0,3.933,0.207,5.629,0.62s3.151,1.055,4.364,1.925c1.213,0.87,2.158,1.991,2.834,3.362
			s1.015,3.006,1.015,4.904c0,1.6-0.25,3.015-0.751,4.245c-0.501,1.23-1.16,2.29-1.978,3.177c-0.817,0.888-1.745,1.622-2.782,2.202
			c-1.038,0.58-2.092,1.02-3.164,1.318c0.527,0.721,1.173,1.604,1.938,2.65s1.582,2.153,2.452,3.322s1.749,2.356,2.637,3.56
			c0.887,1.204,1.718,2.316,2.492,3.335c0.773,1.02,1.45,1.898,2.03,2.637c0.58,0.739,0.984,1.239,1.213,1.503h-6.724l-11.127-16.48
			h-5.353v5.01L66.936,40.794L66.936,40.794z M66.936,31.697h5.01c2.988,0,5.251-0.615,6.79-1.846
			c1.538-1.23,2.307-2.944,2.307-5.142c0-1.125-0.171-2.123-0.514-2.993s-0.879-1.599-1.608-2.188s-1.67-1.037-2.821-1.345
			c-1.151-0.307-2.536-0.461-4.153-0.461c-0.932,0-1.824,0.013-2.676,0.04c-0.853,0.026-1.631,0.057-2.333,0.092v13.843H66.936z"/>
		<path fill="#232323" d="M106.882,24.842c1.441,0,2.716,0.171,3.823,0.514s2.065,0.817,2.874,1.424
			c0.808,0.606,1.485,1.314,2.03,2.123c0.544,0.809,0.979,1.679,1.305,2.61c0.325,0.932,0.558,1.903,0.699,2.914
			s0.211,2.008,0.211,2.993v1.028c0,0.439-0.009,0.782-0.026,1.028H99.104c0.053,1.547,0.294,2.892,0.725,4.034
			c0.431,1.143,1.019,2.087,1.767,2.834c0.747,0.748,1.625,1.305,2.637,1.674c1.011,0.369,2.113,0.554,3.309,0.554
			c1.705,0,3.375-0.193,5.01-0.58c1.635-0.386,3.26-1.072,4.878-2.057l0.527,4.351c-0.932,0.475-1.846,0.879-2.742,1.213
			s-1.793,0.606-2.689,0.817s-1.806,0.365-2.729,0.461s-1.895,0.145-2.914,0.145c-1.688,0-3.296-0.294-4.825-0.883
			s-2.874-1.459-4.034-2.61c-1.16-1.151-2.083-2.58-2.769-4.285s-1.028-3.682-1.028-5.933c0-2.179,0.294-4.153,0.883-5.919
			c0.589-1.767,1.428-3.278,2.518-4.535c1.09-1.256,2.417-2.224,3.981-2.9C103.173,25.182,104.931,24.842,106.882,24.842z
			 M106.487,28.796c-1.934,0-3.516,0.567-4.746,1.701s-2.04,2.896-2.426,5.287h13.764c0-1.125-0.163-2.123-0.488-2.993
			c-0.326-0.87-0.782-1.604-1.371-2.202c-0.589-0.597-1.288-1.045-2.096-1.345C108.315,28.947,107.436,28.796,106.487,28.796z"/>
		<path fill="#232323" d="M136.809,24.842c1.757,0,3.273,0.207,4.548,0.62c1.274,0.413,2.395,0.954,3.362,1.622l-0.923,4.746
			c-1.196-0.879-2.382-1.538-3.56-1.978c-1.178-0.439-2.452-0.659-3.823-0.659c-1.178,0-2.272,0.224-3.283,0.672
			s-1.89,1.094-2.637,1.938c-0.748,0.844-1.332,1.881-1.753,3.111c-0.422,1.23-0.633,2.62-0.633,4.166
			c0,1.424,0.193,2.716,0.58,3.876c0.386,1.16,0.94,2.158,1.661,2.993s1.591,1.481,2.61,1.938c1.019,0.458,2.171,0.686,3.454,0.686
			c1.599,0,3.049-0.272,4.351-0.817c1.301-0.544,2.531-1.327,3.691-2.347l0.527,4.614c-0.668,0.51-1.332,0.945-1.991,1.305
			s-1.349,0.659-2.07,0.896s-1.494,0.413-2.32,0.527c-0.827,0.114-1.731,0.171-2.716,0.171c-1.776,0-3.437-0.312-4.983-0.936
			c-1.547-0.624-2.9-1.525-4.061-2.703c-1.16-1.177-2.074-2.601-2.742-4.271s-1.002-3.56-1.002-5.669
			c0-1.986,0.32-3.858,0.962-5.616c0.642-1.757,1.556-3.296,2.742-4.614s2.627-2.36,4.324-3.125
			C132.823,25.226,134.717,24.842,136.809,24.842z"/>
		<path fill="#232323" d="M162.648,24.842c1.441,0,2.716,0.171,3.823,0.514s2.065,0.817,2.874,1.424
			c0.809,0.607,1.485,1.314,2.03,2.123s0.979,1.679,1.305,2.61c0.325,0.932,0.559,1.903,0.699,2.914
			c0.141,1.011,0.211,2.008,0.211,2.993v1.028c0,0.439-0.009,0.782-0.026,1.028H154.87c0.053,1.547,0.294,2.892,0.725,4.034
			c0.431,1.143,1.019,2.087,1.767,2.834c0.747,0.748,1.625,1.305,2.637,1.674c1.011,0.369,2.113,0.554,3.309,0.554
			c1.705,0,3.375-0.193,5.01-0.58c1.635-0.386,3.261-1.072,4.878-2.057l0.527,4.351c-0.932,0.475-1.846,0.879-2.742,1.213
			s-1.793,0.606-2.689,0.817s-1.806,0.365-2.729,0.461c-0.922,0.096-1.894,0.145-2.913,0.145c-1.688,0-3.296-0.294-4.825-0.883
			s-2.874-1.459-4.034-2.61s-2.083-2.58-2.769-4.285s-1.028-3.682-1.028-5.933c0-2.179,0.294-4.153,0.883-5.919
			c0.589-1.767,1.428-3.278,2.518-4.535c1.09-1.256,2.417-2.224,3.981-2.9C158.94,25.182,160.698,24.842,162.648,24.842z
			 M162.253,28.796c-1.934,0-3.516,0.567-4.746,1.701s-2.04,2.896-2.426,5.287h13.764c0-1.125-0.163-2.123-0.488-2.993
			c-0.325-0.87-0.782-1.604-1.371-2.202c-0.589-0.597-1.287-1.045-2.096-1.345C164.081,28.947,163.203,28.796,162.253,28.796z"/>
		<path fill="#232323" d="M180.447,16.799c0-0.492,0.079-0.953,0.237-1.384s0.383-0.808,0.672-1.134
			c0.291-0.325,0.638-0.58,1.042-0.765s0.853-0.277,1.345-0.277s0.949,0.092,1.371,0.277s0.782,0.439,1.081,0.765
			s0.536,0.703,0.712,1.134s0.264,0.893,0.264,1.384c0,0.492-0.088,0.954-0.264,1.384c-0.176,0.431-0.413,0.809-0.712,1.134
			c-0.299,0.326-0.659,0.58-1.081,0.765s-0.879,0.277-1.371,0.277s-0.94-0.092-1.345-0.277s-0.751-0.439-1.042-0.765
			c-0.289-0.325-0.514-0.703-0.672-1.134C180.526,17.755,180.447,17.291,180.447,16.799z M186.247,39.739
			c0,0.844,0.013,1.842,0.04,2.993c0.025,1.151,0.061,2.316,0.105,3.494c0.043,1.178,0.096,2.303,0.158,3.375
			c0.061,1.072,0.136,1.96,0.224,2.663h-5.405V38.288c0-1.283-0.005-2.548-0.014-3.797c-0.009-1.248-0.025-2.43-0.053-3.546
			c-0.025-1.116-0.065-2.153-0.118-3.111s-0.123-1.78-0.211-2.465h5.273v14.37H186.247z"/>
		<path fill="#232323" d="M195.344,39.476c0-1.635-0.013-3.151-0.04-4.548c-0.025-1.397-0.083-2.68-0.171-3.85
			c-0.088-1.169-0.22-2.228-0.396-3.177s-0.413-1.793-0.712-2.531h4.746c0.193,0.458,0.387,1.104,0.58,1.938
			c0.193,0.835,0.352,1.859,0.475,3.072c0.615-0.808,1.287-1.556,2.017-2.241s1.504-1.27,2.32-1.753
			c0.818-0.483,1.679-0.861,2.584-1.134c0.905-0.272,1.851-0.409,2.835-0.409c1.494,0,2.86,0.33,4.101,0.989
			c1.238,0.659,2.293,1.582,3.164,2.769c0.869,1.187,1.546,2.593,2.029,4.219s0.726,3.406,0.726,5.339
			c0,2.25-0.316,4.285-0.949,6.104s-1.489,3.371-2.571,4.654c-1.08,1.283-2.351,2.272-3.81,2.966s-3.015,1.042-4.667,1.042
			c-0.703,0-1.367-0.07-1.99-0.211c-0.625-0.141-1.231-0.334-1.82-0.58s-1.173-0.549-1.753-0.91c-0.58-0.36-1.187-0.76-1.819-1.2
			v6.196c0,1.055,0.014,2.008,0.039,2.861c0.027,0.853,0.066,1.639,0.119,2.36c0.053,0.721,0.123,1.384,0.211,1.991
			s0.185,1.19,0.29,1.753h-5.537L195.344,39.476L195.344,39.476L195.344,39.476z M207.605,48.572c0.932,0,1.823-0.22,2.676-0.659
			s1.609-1.077,2.268-1.912c0.66-0.834,1.188-1.846,1.582-3.032c0.396-1.187,0.594-2.527,0.594-4.021
			c0-1.459-0.137-2.782-0.408-3.968c-0.273-1.187-0.673-2.197-1.2-3.032c-0.527-0.834-1.165-1.48-1.911-1.938
			c-0.748-0.457-1.596-0.686-2.545-0.686c-0.756,0-1.529,0.167-2.32,0.501s-1.561,0.827-2.307,1.477
			c-0.748,0.65-1.446,1.463-2.097,2.439c-0.651,0.976-1.222,2.096-1.714,3.362v8.306c0.896,0.633,1.674,1.156,2.334,1.569
			c0.658,0.413,1.261,0.738,1.806,0.976s1.067,0.4,1.569,0.488C206.431,48.528,206.99,48.572,207.605,48.572z"/>
		<path fill="#232323" d="M222.898,26.028h5.273v-8.569h4.878v8.569h8.569v3.823h-8.569V41.98c0,1.354,0.065,2.461,0.198,3.322
			c0.131,0.861,0.333,1.534,0.605,2.017c0.272,0.484,0.62,0.813,1.042,0.989c0.422,0.176,0.932,0.264,1.529,0.264
			c0.756,0,1.608-0.167,2.558-0.501c0.949-0.333,2.004-0.826,3.164-1.477v4.219c-1.213,0.791-2.373,1.341-3.48,1.648
			s-2.127,0.461-3.059,0.461c-1.037,0-2.004-0.119-2.9-0.356s-1.684-0.655-2.359-1.252c-0.678-0.597-1.209-1.393-1.596-2.386
			s-0.58-2.254-0.58-3.784V29.852h-5.273L222.898,26.028L222.898,26.028z"/>
		<path fill="#232323" d="M246.628,38.95c0-2.268,0.343-4.275,1.028-6.025c0.686-1.749,1.608-3.226,2.769-4.43
			c1.16-1.204,2.514-2.113,4.061-2.729c1.547-0.615,3.19-0.923,4.931-0.923c1.811,0,3.467,0.308,4.971,0.923
			c1.502,0.616,2.795,1.525,3.875,2.729c1.082,1.204,1.921,2.681,2.519,4.43c0.598,1.75,0.896,3.757,0.896,6.025
			s-0.343,4.271-1.028,6.012c-0.685,1.741-1.608,3.2-2.769,4.377c-1.16,1.178-2.514,2.07-4.061,2.676s-3.19,0.91-4.931,0.91
			c-1.811,0-3.467-0.303-4.971-0.91c-1.502-0.606-2.795-1.499-3.875-2.676c-1.082-1.177-1.921-2.637-2.519-4.377
			C246.925,43.221,246.628,41.215,246.628,38.95z M251.506,38.95c0,1.529,0.185,2.9,0.554,4.113s0.892,2.237,1.569,3.072
			c0.676,0.835,1.48,1.473,2.412,1.912c0.932,0.439,1.969,0.659,3.111,0.659c1.055,0,2.048-0.22,2.979-0.659
			c0.932-0.439,1.744-1.077,2.438-1.912c0.694-0.834,1.24-1.859,1.635-3.072c0.396-1.213,0.594-2.584,0.594-4.113
			c0-1.546-0.185-2.931-0.554-4.153s-0.893-2.258-1.569-3.111c-0.677-0.853-1.485-1.503-2.426-1.951s-1.973-0.672-3.098-0.672
			c-1.072,0-2.074,0.224-3.006,0.672s-1.74,1.099-2.426,1.951c-0.686,0.853-1.227,1.89-1.621,3.111
			C251.703,36.018,251.506,37.403,251.506,38.95z"/>
		<path fill="#232323" d="M275.237,26.028h5.273v-4.614c0-3.955,0.805-6.921,2.412-8.899c1.609-1.978,3.837-2.966,6.685-2.966
			c1.037,0,2.057,0.163,3.059,0.488c1.002,0.326,1.916,0.778,2.742,1.358l-1.213,3.955c-0.668-0.492-1.406-0.879-2.215-1.16
			s-1.6-0.422-2.373-0.422c-0.686,0-1.292,0.119-1.819,0.356s-0.967,0.62-1.318,1.147c-0.351,0.527-0.619,1.209-0.805,2.043
			c-0.184,0.835-0.276,1.85-0.276,3.045v5.669h7.119v3.823h-7.119v9.387c0,1.283,0.013,2.554,0.04,3.81
			c0.025,1.257,0.069,2.452,0.131,3.586s0.146,2.185,0.251,3.151c0.105,0.967,0.229,1.793,0.369,2.479h-5.669V29.852h-5.273v-3.824
			H275.237z"/>
		<path fill="#232323" d="M300.745,16.799c0-0.492,0.079-0.953,0.237-1.384s0.383-0.808,0.672-1.134
			c0.291-0.325,0.638-0.58,1.042-0.765s0.853-0.277,1.345-0.277s0.949,0.092,1.371,0.277s0.782,0.439,1.081,0.765
			c0.299,0.326,0.536,0.703,0.712,1.134s0.264,0.893,0.264,1.384c0,0.492-0.088,0.954-0.264,1.384
			c-0.176,0.431-0.413,0.809-0.712,1.134c-0.299,0.326-0.659,0.58-1.081,0.765s-0.879,0.277-1.371,0.277s-0.94-0.092-1.345-0.277
			s-0.751-0.439-1.042-0.765c-0.289-0.325-0.514-0.703-0.672-1.134C300.824,17.755,300.745,17.291,300.745,16.799z M306.545,39.739
			c0,0.844,0.013,1.842,0.04,2.993c0.025,1.151,0.061,2.316,0.105,3.494c0.043,1.178,0.096,2.303,0.158,3.375
			c0.061,1.072,0.136,1.96,0.224,2.663h-5.405V38.288c0-1.283-0.005-2.548-0.014-3.797c-0.009-1.248-0.025-2.43-0.053-3.546
			c-0.025-1.116-0.065-2.153-0.118-3.111s-0.123-1.78-0.211-2.465h5.273v14.37H306.545z"/>
	</g>
</g>
</svg>
