<?xml version="1.0" encoding="utf-8"?>
<!-- Generator: Adobe Illustrator 17.0.0, SVG Export Plug-In . SVG Version: 6.00 Build 0)  -->
<!DOCTYPE svg PUBLIC "-//W3C//DTD SVG 1.1//EN" "http://www.w3.org/Graphics/SVG/1.1/DTD/svg11.dtd">
<svg version="1.1" id="Слой_1" xmlns="http://www.w3.org/2000/svg" xmlns:xlink="http://www.w3.org/1999/xlink" x="0px" y="0px"
	 width="55px" height="74px" viewBox="0 0 55 74" enable-background="new 0 0 55 74" xml:space="preserve">
<g>
	<g>
		<g>
			<g>
				<defs>
					<path id="SVGID_1_" d="M49.271,39.872C45.246,22.1,35.002,12.423,35.002,12.423l-16.699,4.892
						c-5.648-4.193-10.419-6.962-10.419-6.962L40.17,0.894c0,0,9.323,8.807,12.985,24.98c3.418,15.092-1.989,26.251-2.727,27.676
						C50.655,49.502,50.406,44.885,49.271,39.872z"/>
				</defs>
				<clipPath id="SVGID_2_">
					<use xlink:href="#SVGID_1_"  overflow="visible"/>
				</clipPath>
				
					<linearGradient id="SVGID_3_" gradientUnits="userSpaceOnUse" x1="-183.1108" y1="-191.8639" x2="-204.9827" y2="-141.1851" gradientTransform="matrix(-1 0 0 1 -157.6614 197)">
					<stop  offset="0" style="stop-color:#455B65"/>
					<stop  offset="1" style="stop-color:#394B54"/>
				</linearGradient>
				<path clip-path="url(#SVGID_2_)" fill="url(#SVGID_3_)" d="M49.271,39.872C45.246,22.1,35.002,12.423,35.002,12.423
					l-16.699,4.892c-5.648-4.193-10.419-6.962-10.419-6.962L40.17,0.894c0,0,9.323,8.807,12.985,24.98
					c3.418,15.092-1.989,26.251-2.727,27.676C50.655,49.502,50.406,44.885,49.271,39.872z"/>
			</g>
		</g>
		<g>
			<g>
				<defs>
					<path id="SVGID_4_" d="M49.271,39.872C45.246,22.1,35.002,12.423,35.002,12.423l-16.699,4.892
						c-5.648-4.193-10.419-6.962-10.419-6.962L40.17,0.894c0,0,9.323,8.807,12.985,24.98c3.418,15.092-1.989,26.251-2.727,27.676
						C50.655,49.502,50.406,44.885,49.271,39.872z"/>
				</defs>
				<clipPath id="SVGID_5_">
					<use xlink:href="#SVGID_4_"  overflow="visible"/>
				</clipPath>
				<path opacity="0.2" clip-path="url(#SVGID_5_)" fill="#FFFFFF" enable-background="new    " d="M40.583,28.064
					c8.478,12.507,0.108,27.257,0.108,27.257l9.96-1.618c0,0,6.472-11.658,2.81-27.831S40.476,0.892,40.476,0.892
					S32.105,15.559,40.583,28.064z"/>
			</g>
		</g>
	</g>
	<g>
		<g>
			<g>
				<defs>
					<path id="SVGID_6_" d="M0.722,28.135c0,0,17.093,9.92,24.87,20.639s7.631,24.332,7.631,24.332l9.96-1.618
						c0,0,6.472-11.658,2.81-27.831s-12.985-24.98-12.985-24.98L0.722,28.135z M31.905,38.952c2.775-0.813,5.551-1.626,8.326-2.439
						c0.697-0.204,1.45,0.24,1.641,0.931c0.195,0.709-0.234,1.436-0.931,1.641c-2.775,0.813-5.551,1.626-8.326,2.439
						c-0.697,0.204-1.45-0.24-1.641-0.931C30.778,39.882,31.208,39.156,31.905,38.952z M21.397,34.291
						c2.968-0.87,5.937-1.739,8.905-2.609c2.183-0.64,4.367-1.279,6.55-1.919c0.697-0.204,1.45,0.24,1.641,0.931
						c0.195,0.709-0.234,1.436-0.931,1.641c-2.968,0.87-5.937,1.739-8.905,2.609c-2.183,0.64-4.367,1.279-6.55,1.919
						c-0.697,0.204-1.45-0.24-1.641-0.931C20.27,35.221,20.7,34.494,21.397,34.291z M16.117,29.864
						c-0.195-0.709,0.234-1.436,0.931-1.641c2.968-0.87,5.937-1.739,8.905-2.609c2.183-0.64,4.367-1.279,6.55-1.919
						c0.697-0.204,1.45,0.24,1.641,0.931c0.195,0.709-0.234,1.436-0.931,1.641c-2.968,0.87-5.937,1.739-8.905,2.609
						c-2.183,0.64-4.367,1.279-6.55,1.919C17.06,30.999,16.307,30.554,16.117,29.864z"/>
				</defs>
				<clipPath id="SVGID_7_">
					<use xlink:href="#SVGID_6_"  overflow="visible"/>
				</clipPath>
				
					<linearGradient id="SVGID_8_" gradientUnits="userSpaceOnUse" x1="-174.9767" y1="-173.9458" x2="-202.9834" y2="-127.268" gradientTransform="matrix(-1 0 0 1 -157.6614 197)">
					<stop  offset="0" style="stop-color:#DC2347"/>
					<stop  offset="1" style="stop-color:#B41C3A"/>
				</linearGradient>
				<path clip-path="url(#SVGID_7_)" fill="url(#SVGID_8_)" d="M0.722,28.135c0,0,17.093,9.92,24.87,20.639
					s7.631,24.332,7.631,24.332l9.96-1.618c0,0,6.472-11.658,2.81-27.831s-12.985-24.98-12.985-24.98L0.722,28.135z M31.905,38.952
					c2.775-0.813,5.551-1.626,8.326-2.439c0.697-0.204,1.45,0.24,1.641,0.931c0.195,0.709-0.234,1.436-0.931,1.641
					c-2.775,0.813-5.551,1.626-8.326,2.439c-0.697,0.204-1.45-0.24-1.641-0.931C30.778,39.882,31.208,39.156,31.905,38.952z
					 M21.397,34.291c2.968-0.87,5.937-1.739,8.905-2.609c2.183-0.64,4.367-1.279,6.55-1.919c0.697-0.204,1.45,0.24,1.641,0.931
					c0.195,0.709-0.234,1.436-0.931,1.641c-2.968,0.87-5.937,1.739-8.905,2.609c-2.183,0.64-4.367,1.279-6.55,1.919
					c-0.697,0.204-1.45-0.24-1.641-0.931C20.27,35.221,20.7,34.494,21.397,34.291z M16.117,29.864
					c-0.195-0.709,0.234-1.436,0.931-1.641c2.968-0.87,5.937-1.739,8.905-2.609c2.183-0.64,4.367-1.279,6.55-1.919
					c0.697-0.204,1.45,0.24,1.641,0.931c0.195,0.709-0.234,1.436-0.931,1.641c-2.968,0.87-5.937,1.739-8.905,2.609
					c-2.183,0.64-4.367,1.279-6.55,1.919C17.06,30.999,16.307,30.554,16.117,29.864z"/>
			</g>
		</g>
		<g>
			<g>
				<defs>
					<path id="SVGID_9_" d="M0.722,28.135c0,0,17.093,9.92,24.87,20.639s7.631,24.332,7.631,24.332l9.96-1.618
						c0,0,6.472-11.658,2.81-27.831s-12.985-24.98-12.985-24.98L0.722,28.135z M31.905,38.952c2.775-0.813,5.551-1.626,8.326-2.439
						c0.697-0.204,1.45,0.24,1.641,0.931c0.195,0.709-0.234,1.436-0.931,1.641c-2.775,0.813-5.551,1.626-8.326,2.439
						c-0.697,0.204-1.45-0.24-1.641-0.931C30.778,39.882,31.208,39.156,31.905,38.952z M21.397,34.291
						c2.968-0.87,5.937-1.739,8.905-2.609c2.183-0.64,4.367-1.279,6.55-1.919c0.697-0.204,1.45,0.24,1.641,0.931
						c0.195,0.709-0.234,1.436-0.931,1.641c-2.968,0.87-5.937,1.739-8.905,2.609c-2.183,0.64-4.367,1.279-6.55,1.919
						c-0.697,0.204-1.45-0.24-1.641-0.931C20.27,35.221,20.7,34.494,21.397,34.291z M16.117,29.864
						c-0.195-0.709,0.234-1.436,0.931-1.641c2.968-0.87,5.937-1.739,8.905-2.609c2.183-0.64,4.367-1.279,6.55-1.919
						c0.697-0.204,1.45,0.24,1.641,0.931c0.195,0.709-0.234,1.436-0.931,1.641c-2.968,0.87-5.937,1.739-8.905,2.609
						c-2.183,0.64-4.367,1.279-6.55,1.919C17.06,30.999,16.307,30.554,16.117,29.864z"/>
				</defs>
				<clipPath id="SVGID_10_">
					<use xlink:href="#SVGID_9_"  overflow="visible"/>
				</clipPath>
				<path opacity="0.2" clip-path="url(#SVGID_10_)" fill="#FFFFFF" enable-background="new    " d="M33.115,45.848
					c8.478,12.507,0.108,27.257,0.108,27.257l9.96-1.618c0,0,6.472-11.658,2.81-27.831s-12.985-24.98-12.985-24.98
					S24.638,33.34,33.115,45.848z"/>
			</g>
		</g>
	</g>
</g>
</svg>
