<?xml version="1.0" encoding="utf-8"?>
<!-- Generator: Adobe Illustrator 17.0.0, SVG Export Plug-In . SVG Version: 6.00 Build 0)  -->
<!DOCTYPE svg PUBLIC "-//W3C//DTD SVG 1.1//EN" "http://www.w3.org/Graphics/SVG/1.1/DTD/svg11.dtd">
<svg version="1.1" id="Слой_1" xmlns="http://www.w3.org/2000/svg" xmlns:xlink="http://www.w3.org/1999/xlink" x="0px" y="0px"
	 width="612px" height="792px" viewBox="0 0 612 792" enable-background="new 0 0 612 792" xml:space="preserve">
<g>
	<g>
		<path fill="#232323" d="M202.62,399.796c0,1.301,0.004,2.531,0.013,3.691c0.009,1.16,0.026,2.232,0.053,3.217
			s0.066,1.863,0.119,2.637s0.123,1.415,0.211,1.925h-5.801c0.193-1.055,0.307-2.58,0.343-4.575
			c0.035-1.994,0.053-4.293,0.053-6.895v-18.668c0-1.23-0.013-2.377-0.04-3.441c-0.026-1.063-0.066-2.017-0.119-2.861
			s-0.132-1.529-0.237-2.057c0.914-0.035,1.925-0.079,3.032-0.132c0.949-0.035,2.074-0.066,3.375-0.092
			c1.301-0.026,2.725-0.04,4.271-0.04c2.057,0,3.933,0.207,5.629,0.62c1.696,0.413,3.151,1.055,4.364,1.925s2.158,1.991,2.834,3.362
			c0.676,1.371,1.015,3.006,1.015,4.904c0,1.6-0.25,3.015-0.751,4.245c-0.501,1.23-1.16,2.29-1.978,3.177
			c-0.817,0.888-1.745,1.622-2.782,2.202c-1.038,0.58-2.092,1.02-3.164,1.318c0.527,0.721,1.173,1.604,1.938,2.65
			c0.765,1.046,1.582,2.153,2.452,3.322c0.87,1.17,1.749,2.356,2.637,3.56c0.887,1.204,1.718,2.316,2.492,3.336
			c0.773,1.02,1.45,1.898,2.03,2.637s0.984,1.239,1.213,1.503H219.1l-11.127-16.48h-5.353V399.796z M202.62,390.699h5.01
			c2.988,0,5.251-0.615,6.79-1.846c1.538-1.23,2.307-2.944,2.307-5.142c0-1.125-0.171-2.123-0.514-2.993s-0.879-1.599-1.608-2.188
			c-0.729-0.589-1.67-1.037-2.821-1.345c-1.151-0.307-2.536-0.461-4.153-0.461c-0.932,0-1.824,0.013-2.676,0.04
			c-0.853,0.026-1.631,0.057-2.333,0.092V390.699z"/>
		<path fill="#232323" d="M242.566,383.843c1.441,0,2.716,0.171,3.823,0.514s2.065,0.817,2.874,1.424
			c0.808,0.606,1.485,1.314,2.03,2.123c0.544,0.809,0.979,1.679,1.305,2.61c0.325,0.932,0.558,1.903,0.699,2.914
			c0.141,1.011,0.211,2.008,0.211,2.993v1.029c0,0.439-0.009,0.782-0.026,1.028h-18.694c0.053,1.547,0.294,2.892,0.725,4.034
			c0.431,1.143,1.019,2.087,1.767,2.834c0.747,0.748,1.625,1.306,2.637,1.675c1.011,0.369,2.113,0.554,3.309,0.554
			c1.705,0,3.375-0.193,5.01-0.58s3.26-1.072,4.878-2.057l0.527,4.351c-0.932,0.475-1.846,0.879-2.742,1.213
			s-1.793,0.606-2.689,0.817s-1.806,0.364-2.729,0.461s-1.895,0.146-2.914,0.146c-1.688,0-3.296-0.295-4.825-0.884
			s-2.874-1.459-4.034-2.61c-1.16-1.15-2.083-2.579-2.769-4.284s-1.028-3.683-1.028-5.933c0-2.18,0.294-4.153,0.883-5.92
			c0.589-1.767,1.428-3.278,2.518-4.535c1.09-1.256,2.417-2.224,3.981-2.9C238.857,384.182,240.615,383.843,242.566,383.843z
			 M242.171,387.798c-1.934,0-3.516,0.567-4.746,1.701c-1.23,1.134-2.04,2.896-2.426,5.287h13.764c0-1.125-0.163-2.123-0.488-2.993
			c-0.326-0.87-0.782-1.604-1.371-2.202c-0.589-0.597-1.288-1.045-2.096-1.345C243.999,387.948,243.12,387.798,242.171,387.798z"/>
		<path fill="#232323" d="M272.493,383.843c1.757,0,3.273,0.207,4.548,0.62c1.274,0.413,2.395,0.954,3.362,1.622l-0.923,4.746
			c-1.196-0.879-2.382-1.538-3.56-1.978c-1.178-0.439-2.452-0.659-3.823-0.659c-1.178,0-2.272,0.224-3.283,0.672
			c-1.011,0.448-1.89,1.094-2.637,1.938c-0.748,0.844-1.332,1.881-1.753,3.111c-0.422,1.23-0.633,2.62-0.633,4.167
			c0,1.424,0.193,2.716,0.58,3.876c0.386,1.16,0.94,2.158,1.661,2.992c0.721,0.835,1.591,1.481,2.61,1.938
			c1.019,0.457,2.171,0.686,3.454,0.686c1.599,0,3.049-0.272,4.351-0.817c1.301-0.545,2.531-1.327,3.691-2.347l0.527,4.614
			c-0.668,0.51-1.332,0.945-1.991,1.305c-0.659,0.36-1.349,0.659-2.07,0.896c-0.721,0.237-1.494,0.413-2.32,0.527
			c-0.827,0.114-1.731,0.172-2.716,0.172c-1.776,0-3.437-0.312-4.983-0.937c-1.547-0.623-2.9-1.524-4.061-2.702
			s-2.074-2.602-2.742-4.271c-0.668-1.67-1.002-3.56-1.002-5.669c0-1.987,0.32-3.859,0.962-5.617
			c0.642-1.757,1.556-3.296,2.742-4.614s2.627-2.36,4.324-3.125C268.507,384.226,270.401,383.843,272.493,383.843z"/>
		<path fill="#232323" d="M298.333,383.843c1.441,0,2.716,0.171,3.823,0.514s2.065,0.817,2.874,1.424s1.485,1.314,2.03,2.123
			c0.545,0.809,0.979,1.679,1.305,2.61c0.325,0.932,0.559,1.903,0.699,2.914c0.141,1.011,0.211,2.008,0.211,2.993v1.029
			c0,0.439-0.009,0.782-0.026,1.028h-18.694c0.053,1.547,0.294,2.892,0.725,4.034c0.431,1.143,1.019,2.087,1.767,2.834
			c0.747,0.748,1.625,1.306,2.637,1.675c1.011,0.369,2.113,0.554,3.309,0.554c1.705,0,3.375-0.193,5.01-0.58
			s3.261-1.072,4.878-2.057l0.527,4.351c-0.932,0.475-1.846,0.879-2.742,1.213s-1.793,0.606-2.689,0.817s-1.806,0.364-2.729,0.461
			c-0.922,0.097-1.894,0.146-2.913,0.146c-1.688,0-3.296-0.295-4.825-0.884s-2.874-1.459-4.034-2.61
			c-1.16-1.15-2.083-2.579-2.769-4.284s-1.028-3.683-1.028-5.933c0-2.18,0.294-4.153,0.883-5.92
			c0.589-1.767,1.428-3.278,2.518-4.535c1.09-1.256,2.417-2.224,3.981-2.9C294.624,384.182,296.382,383.843,298.333,383.843z
			 M297.937,387.798c-1.934,0-3.516,0.567-4.746,1.701c-1.23,1.134-2.04,2.896-2.426,5.287h13.764c0-1.125-0.163-2.123-0.488-2.993
			s-0.782-1.604-1.371-2.202c-0.589-0.597-1.287-1.045-2.096-1.345C299.766,387.948,298.887,387.798,297.937,387.798z"/>
		<path fill="#232323" d="M316.131,375.801c0-0.492,0.079-0.953,0.237-1.384c0.158-0.431,0.383-0.808,0.672-1.134
			c0.291-0.325,0.638-0.58,1.042-0.765s0.853-0.277,1.345-0.277s0.949,0.092,1.371,0.277s0.782,0.439,1.081,0.765
			c0.299,0.326,0.536,0.703,0.712,1.134c0.176,0.431,0.264,0.893,0.264,1.384c0,0.492-0.088,0.954-0.264,1.384
			c-0.176,0.431-0.413,0.809-0.712,1.134c-0.299,0.326-0.659,0.58-1.081,0.765s-0.879,0.277-1.371,0.277s-0.94-0.092-1.345-0.277
			s-0.751-0.439-1.042-0.765c-0.289-0.325-0.514-0.703-0.672-1.134C316.21,376.755,316.131,376.293,316.131,375.801z
			 M321.932,398.741c0,0.844,0.013,1.842,0.04,2.992c0.025,1.151,0.061,2.316,0.105,3.494c0.043,1.178,0.096,2.303,0.158,3.375
			c0.061,1.072,0.136,1.96,0.224,2.663h-5.405v-13.975c0-1.283-0.005-2.549-0.014-3.797c-0.009-1.248-0.025-2.43-0.053-3.546
			c-0.025-1.116-0.065-2.153-0.118-3.111c-0.053-0.958-0.123-1.78-0.211-2.465h5.273V398.741z"/>
		<path fill="#232323" d="M331.028,398.477c0-1.635-0.013-3.151-0.04-4.549c-0.025-1.397-0.083-2.68-0.171-3.85
			c-0.088-1.169-0.22-2.228-0.396-3.177s-0.413-1.793-0.712-2.531h4.746c0.193,0.458,0.387,1.104,0.58,1.938
			c0.193,0.835,0.352,1.859,0.475,3.072c0.615-0.808,1.287-1.556,2.017-2.241s1.504-1.27,2.32-1.753
			c0.818-0.483,1.679-0.861,2.584-1.134c0.905-0.272,1.851-0.409,2.835-0.409c1.494,0,2.86,0.33,4.101,0.989
			c1.238,0.659,2.293,1.582,3.164,2.769c0.869,1.187,1.546,2.593,2.029,4.219c0.483,1.626,0.726,3.406,0.726,5.34
			c0,2.25-0.316,4.284-0.949,6.104s-1.489,3.371-2.571,4.654c-1.08,1.283-2.351,2.271-3.81,2.966s-3.015,1.042-4.667,1.042
			c-0.703,0-1.367-0.07-1.99-0.211c-0.625-0.142-1.231-0.334-1.82-0.58s-1.173-0.55-1.753-0.91c-0.58-0.359-1.187-0.76-1.819-1.199
			v6.196c0,1.055,0.014,2.008,0.039,2.86c0.027,0.853,0.066,1.639,0.119,2.36c0.053,0.721,0.123,1.384,0.211,1.99
			s0.185,1.19,0.29,1.754h-5.537V398.477z M343.289,407.574c0.932,0,1.823-0.22,2.676-0.659s1.609-1.077,2.268-1.912
			c0.66-0.834,1.188-1.846,1.582-3.032c0.396-1.187,0.594-2.526,0.594-4.021c0-1.459-0.137-2.782-0.408-3.969
			c-0.273-1.187-0.673-2.197-1.2-3.032c-0.527-0.834-1.165-1.48-1.911-1.938c-0.748-0.457-1.596-0.686-2.545-0.686
			c-0.756,0-1.529,0.167-2.32,0.501c-0.791,0.334-1.561,0.827-2.307,1.477c-0.748,0.65-1.446,1.463-2.097,2.439
			s-1.222,2.096-1.714,3.362v8.306c0.896,0.633,1.674,1.156,2.334,1.568c0.658,0.413,1.261,0.738,1.806,0.976s1.067,0.4,1.569,0.488
			C342.115,407.53,342.674,407.574,343.289,407.574z"/>
		<path fill="#232323" d="M358.582,385.03h5.273v-8.569h4.878v8.569h8.569v3.823h-8.569v12.129c0,1.354,0.065,2.461,0.198,3.322
			c0.131,0.861,0.333,1.533,0.605,2.017c0.272,0.484,0.62,0.813,1.042,0.989s0.932,0.264,1.529,0.264
			c0.756,0,1.608-0.167,2.558-0.501s2.004-0.826,3.164-1.477v4.219c-1.213,0.791-2.373,1.341-3.48,1.647
			c-1.107,0.308-2.127,0.462-3.059,0.462c-1.037,0-2.004-0.119-2.9-0.356s-1.684-0.654-2.359-1.252
			c-0.678-0.598-1.209-1.394-1.596-2.387c-0.387-0.992-0.58-2.254-0.58-3.783v-15.293h-5.273V385.03z"/>
		<path fill="#232323" d="M406.016,401.114h-16.216l-3.533,10.151h-5.405c0.229-0.527,0.466-1.081,0.712-1.661
			s0.515-1.235,0.804-1.965c0.291-0.729,0.611-1.56,0.963-2.491s0.756-2.013,1.213-3.243l10.547-29.136h5.669l10.547,29.136
			c0.439,1.23,0.835,2.312,1.187,3.243s0.677,1.763,0.976,2.491c0.299,0.729,0.571,1.385,0.817,1.965s0.483,1.134,0.712,1.661
			h-5.405L406.016,401.114z M391.224,397.027h13.368l-6.724-19.117L391.224,397.027z"/>
		<path fill="#232323" d="M420.677,398.477c0-1.635-0.013-3.151-0.04-4.549c-0.025-1.397-0.083-2.68-0.171-3.85
			c-0.088-1.169-0.22-2.228-0.396-3.177s-0.413-1.793-0.712-2.531h4.746c0.193,0.458,0.387,1.104,0.58,1.938
			c0.193,0.835,0.352,1.859,0.475,3.072c0.615-0.808,1.287-1.556,2.017-2.241s1.504-1.27,2.32-1.753
			c0.818-0.483,1.679-0.861,2.584-1.134c0.905-0.272,1.851-0.409,2.835-0.409c1.494,0,2.86,0.33,4.101,0.989
			c1.238,0.659,2.293,1.582,3.164,2.769c0.869,1.187,1.546,2.593,2.029,4.219c0.483,1.626,0.726,3.406,0.726,5.34
			c0,2.25-0.316,4.284-0.949,6.104s-1.489,3.371-2.571,4.654c-1.08,1.283-2.351,2.271-3.81,2.966s-3.015,1.042-4.667,1.042
			c-0.703,0-1.367-0.07-1.99-0.211c-0.625-0.142-1.231-0.334-1.82-0.58s-1.173-0.55-1.753-0.91c-0.58-0.359-1.187-0.76-1.819-1.199
			v6.196c0,1.055,0.014,2.008,0.039,2.86c0.027,0.853,0.066,1.639,0.119,2.36c0.053,0.721,0.123,1.384,0.211,1.99
			s0.185,1.19,0.29,1.754h-5.537V398.477z M432.937,407.574c0.932,0,1.823-0.22,2.676-0.659s1.609-1.077,2.268-1.912
			c0.66-0.834,1.188-1.846,1.582-3.032c0.396-1.187,0.594-2.526,0.594-4.021c0-1.459-0.137-2.782-0.408-3.969
			c-0.273-1.187-0.673-2.197-1.2-3.032c-0.527-0.834-1.165-1.48-1.911-1.938c-0.748-0.457-1.596-0.686-2.545-0.686
			c-0.756,0-1.529,0.167-2.32,0.501c-0.791,0.334-1.561,0.827-2.307,1.477c-0.748,0.65-1.446,1.463-2.097,2.439
			s-1.222,2.096-1.714,3.362v8.306c0.896,0.633,1.674,1.156,2.334,1.568c0.658,0.413,1.261,0.738,1.806,0.976s1.067,0.4,1.569,0.488
			C431.764,407.53,432.322,407.574,432.937,407.574z"/>
		<path fill="#232323" d="M451.526,398.477c0-1.635-0.013-3.151-0.04-4.549c-0.025-1.397-0.083-2.68-0.171-3.85
			c-0.088-1.169-0.22-2.228-0.396-3.177s-0.413-1.793-0.712-2.531h4.746c0.193,0.458,0.387,1.104,0.58,1.938
			c0.193,0.835,0.352,1.859,0.475,3.072c0.615-0.808,1.287-1.556,2.017-2.241s1.504-1.27,2.32-1.753
			c0.818-0.483,1.679-0.861,2.584-1.134c0.905-0.272,1.851-0.409,2.835-0.409c1.494,0,2.86,0.33,4.101,0.989
			c1.238,0.659,2.293,1.582,3.164,2.769c0.869,1.187,1.546,2.593,2.029,4.219c0.483,1.626,0.726,3.406,0.726,5.34
			c0,2.25-0.316,4.284-0.949,6.104s-1.489,3.371-2.571,4.654c-1.08,1.283-2.351,2.271-3.81,2.966s-3.015,1.042-4.667,1.042
			c-0.703,0-1.367-0.07-1.99-0.211c-0.625-0.142-1.231-0.334-1.82-0.58s-1.173-0.55-1.753-0.91c-0.58-0.359-1.187-0.76-1.819-1.199
			v6.196c0,1.055,0.014,2.008,0.039,2.86c0.027,0.853,0.066,1.639,0.119,2.36c0.053,0.721,0.123,1.384,0.211,1.99
			s0.185,1.19,0.29,1.754h-5.537V398.477z M463.787,407.574c0.932,0,1.823-0.22,2.676-0.659s1.609-1.077,2.268-1.912
			c0.66-0.834,1.188-1.846,1.582-3.032c0.396-1.187,0.594-2.526,0.594-4.021c0-1.459-0.137-2.782-0.408-3.969
			c-0.273-1.187-0.673-2.197-1.2-3.032c-0.527-0.834-1.165-1.48-1.911-1.938c-0.748-0.457-1.596-0.686-2.545-0.686
			c-0.756,0-1.529,0.167-2.32,0.501c-0.791,0.334-1.561,0.827-2.307,1.477c-0.748,0.65-1.446,1.463-2.097,2.439
			s-1.222,2.096-1.714,3.362v8.306c0.896,0.633,1.674,1.156,2.334,1.568c0.658,0.413,1.261,0.738,1.806,0.976s1.067,0.4,1.569,0.488
			C462.613,407.53,463.172,407.574,463.787,407.574z"/>
	</g>
	<g>
		<g>
			<defs>
				<path id="SVGID_1_" d="M184.765,398.872c-4.025-17.772-14.269-27.449-14.269-27.449l-16.699,4.892
					c-5.648-4.193-10.419-6.962-10.419-6.962l32.286-9.458c0,0,9.323,8.807,12.985,24.98c3.418,15.092-1.989,26.251-2.727,27.676
					C186.149,408.502,185.9,403.885,184.765,398.872z"/>
			</defs>
			<clipPath id="SVGID_2_">
				<use xlink:href="#SVGID_1_"  overflow="visible"/>
			</clipPath>
			
				<linearGradient id="SVGID_3_" gradientUnits="userSpaceOnUse" x1="590.3951" y1="364.137" x2="568.5232" y2="414.8158" gradientTransform="matrix(-1 0 0 1 751.3386 0)">
				<stop  offset="0" style="stop-color:#455B65"/>
				<stop  offset="1" style="stop-color:#394B54"/>
			</linearGradient>
			<path clip-path="url(#SVGID_2_)" fill="url(#SVGID_3_)" d="M184.765,398.872c-4.025-17.772-14.269-27.449-14.269-27.449
				l-16.699,4.892c-5.648-4.193-10.419-6.962-10.419-6.962l32.286-9.458c0,0,9.323,8.807,12.985,24.98
				c3.418,15.092-1.989,26.251-2.727,27.676C186.149,408.502,185.9,403.885,184.765,398.872z"/>
			<path opacity="0.2" clip-path="url(#SVGID_2_)" fill="#FFFFFF" d="M176.077,387.066c8.478,12.507,0.108,27.257,0.108,27.257
				l9.96-1.618c0,0,6.472-11.658,2.81-27.831c-3.663-16.173-12.985-24.98-12.985-24.98S167.599,374.56,176.077,387.066z"/>
		</g>
		<g>
			<defs>
				<path id="SVGID_4_" d="M136.216,387.135c0,0,17.093,9.92,24.87,20.639c7.777,10.719,7.631,24.332,7.631,24.332l9.96-1.618
					c0,0,6.472-11.658,2.81-27.831s-12.985-24.98-12.985-24.98L136.216,387.135z M167.399,397.953
					c2.775-0.813,5.551-1.626,8.326-2.439c0.697-0.204,1.45,0.24,1.641,0.931c0.195,0.709-0.234,1.436-0.931,1.641
					c-2.775,0.813-5.551,1.626-8.326,2.439c-0.697,0.204-1.45-0.24-1.641-0.931C166.272,398.884,166.702,398.157,167.399,397.953z
					 M156.891,393.292c2.968-0.87,5.937-1.739,8.905-2.609c2.183-0.64,4.367-1.279,6.55-1.919c0.697-0.204,1.45,0.24,1.641,0.931
					c0.195,0.709-0.234,1.436-0.931,1.641c-2.968,0.87-5.937,1.739-8.905,2.609c-2.183,0.64-4.367,1.279-6.55,1.919
					c-0.697,0.204-1.45-0.24-1.641-0.931C155.764,394.223,156.194,393.496,156.891,393.292z M151.611,388.864
					c-0.195-0.709,0.234-1.436,0.931-1.641c2.968-0.87,5.937-1.739,8.905-2.609c2.183-0.64,4.367-1.279,6.55-1.919
					c0.697-0.204,1.45,0.24,1.641,0.931c0.195,0.709-0.234,1.436-0.931,1.641c-2.968,0.87-5.937,1.739-8.905,2.609
					c-2.183,0.64-4.367,1.279-6.55,1.919C152.554,390,151.801,389.556,151.611,388.864z"/>
			</defs>
			<clipPath id="SVGID_5_">
				<use xlink:href="#SVGID_4_"  overflow="visible"/>
			</clipPath>
			
				<linearGradient id="SVGID_6_" gradientUnits="userSpaceOnUse" x1="598.5295" y1="382.0551" x2="570.5228" y2="428.7329" gradientTransform="matrix(-1 0 0 1 751.3386 0)">
				<stop  offset="0" style="stop-color:#DC2347"/>
				<stop  offset="1" style="stop-color:#B41C3A"/>
			</linearGradient>
			<path clip-path="url(#SVGID_5_)" fill="url(#SVGID_6_)" d="M136.216,387.135c0,0,17.093,9.92,24.87,20.639
				c7.777,10.719,7.631,24.332,7.631,24.332l9.96-1.618c0,0,6.472-11.658,2.81-27.831s-12.985-24.98-12.985-24.98L136.216,387.135z
				 M167.399,397.953c2.775-0.813,5.551-1.626,8.326-2.439c0.697-0.204,1.45,0.24,1.641,0.931c0.195,0.709-0.234,1.436-0.931,1.641
				c-2.775,0.813-5.551,1.626-8.326,2.439c-0.697,0.204-1.45-0.24-1.641-0.931C166.272,398.884,166.702,398.157,167.399,397.953z
				 M156.891,393.292c2.968-0.87,5.937-1.739,8.905-2.609c2.183-0.64,4.367-1.279,6.55-1.919c0.697-0.204,1.45,0.24,1.641,0.931
				c0.195,0.709-0.234,1.436-0.931,1.641c-2.968,0.87-5.937,1.739-8.905,2.609c-2.183,0.64-4.367,1.279-6.55,1.919
				c-0.697,0.204-1.45-0.24-1.641-0.931C155.764,394.223,156.194,393.496,156.891,393.292z M151.611,388.864
				c-0.195-0.709,0.234-1.436,0.931-1.641c2.968-0.87,5.937-1.739,8.905-2.609c2.183-0.64,4.367-1.279,6.55-1.919
				c0.697-0.204,1.45,0.24,1.641,0.931c0.195,0.709-0.234,1.436-0.931,1.641c-2.968,0.87-5.937,1.739-8.905,2.609
				c-2.183,0.64-4.367,1.279-6.55,1.919C152.554,390,151.801,389.556,151.611,388.864z"/>
			<path opacity="0.2" clip-path="url(#SVGID_5_)" fill="#FFFFFF" d="M168.609,404.849c8.478,12.507,0.108,27.257,0.108,27.257
				l9.96-1.618c0,0,6.472-11.658,2.81-27.831s-12.985-24.98-12.985-24.98S160.131,392.342,168.609,404.849z"/>
		</g>
	</g>
</g>
</svg>
